<svg xmlns="http://www.w3.org/2000/svg" width="530" height="478" viewBox="0 0 530 478" fill="none"><path d="M103.971 477.922C76.1416 477.922 48.3123 478 20.5219 477.767C17.6457 477.767 13.0593 476.331 12.3597 474.429C11.388 471.673 12.282 467.248 14.0699 464.725C27.8679 445.435 42.2101 426.532 56.047 407.28C71.0111 386.475 85.5864 365.36 100.473 344.478C112.561 327.516 124.921 310.787 137.008 293.864C148.63 277.601 160.018 261.143 171.601 244.841C179.374 233.935 187.342 223.183 195.116 212.276C204.288 199.39 213.306 186.387 222.517 173.539C234.061 157.431 245.799 141.44 257.382 125.293C265.388 114.153 273.007 102.781 281.13 91.7184C294.034 74.1743 306.394 56.1644 320.503 39.6682C333.796 24.1036 351.169 13.7014 371.147 7.95683C385.567 3.8425 400.104 1.86296 415.185 2.01822C449.971 2.36755 484.719 2.01822 519.505 2.01822C519.972 2.01822 520.516 1.86296 520.944 2.01822C523.975 3.10503 528.523 3.53199 529.572 5.62797C530.699 7.8792 529.378 12.3817 527.629 14.8658C514.103 33.7296 500.149 52.3218 486.429 71.0691C478.811 81.4714 471.465 92.1066 463.925 102.548C454.752 115.24 445.462 127.816 436.251 140.469C429.06 150.367 421.909 160.342 414.757 170.279C400.609 189.919 386.617 209.637 372.313 229.16C367.338 235.914 365.784 242.241 371.031 249.46C376.706 257.301 382.147 265.297 387.588 273.292C396.139 285.791 404.574 298.367 413.163 310.865C421.714 323.363 430.421 335.784 439.01 348.282C446.667 359.461 454.247 370.678 461.904 381.856C471.348 395.713 480.832 409.531 490.316 423.388C497.506 433.907 504.658 444.425 511.926 454.905C514.219 458.204 517.251 461.116 519.078 464.609C520.516 467.365 521.643 471.052 520.982 473.885C520.127 477.612 516.085 477.883 512.509 477.883C466.568 477.767 420.626 477.689 374.684 477.651C368.854 477.651 363.024 477.651 357.233 477.728C350.198 477.883 344.212 475.865 339.82 470.004C330.88 458.166 321.824 446.405 312.885 434.566C303.751 422.456 294.695 410.307 285.677 398.081C283.851 395.636 282.374 392.919 280.702 390.357C276.077 383.176 269.197 382.633 264.106 389.348C256.721 399.129 249.686 409.143 242.418 419.002C233.245 431.461 223.994 443.921 214.744 456.303C211.285 460.96 207.786 465.579 204.133 470.082C199.508 475.787 193.289 477.728 186.059 477.689C158.735 477.573 131.373 477.651 104.049 477.651C104.049 477.651 104.049 477.728 104.049 477.767L103.971 477.922Z" fill="black" fill-opacity="0.15"></path><path d="M99.8513 2.13487C128.147 2.13487 156.482 2.56183 184.777 1.9408C195.932 1.70791 202.734 7.14194 208.409 15.2153C218.165 29.0721 227.493 43.2006 237.093 57.135C240.552 62.1808 244.361 66.9938 247.898 72.0009C252.29 78.1724 251.669 84.4215 246.966 90.166C238.531 100.568 230.33 111.165 222.207 121.8C212.917 133.988 203.783 146.292 194.611 158.596C183.028 174.122 171.446 189.609 160.018 205.212C155.898 210.84 150.107 211.733 145.443 206.066C139.496 198.847 134.444 190.928 128.924 183.398C117.109 167.252 105.176 151.221 93.3604 135.074C84.8872 123.508 76.4918 111.825 68.0186 100.258C60.5949 90.0884 53.1712 79.9578 45.6697 69.8273C36.5746 57.4843 27.4407 45.1801 18.3068 32.8759C13.8759 26.9373 9.40612 20.9987 4.9752 15.0601C4.31445 14.1674 3.73144 13.1582 3.22616 12.149C0.233344 6.13276 2.40993 2.25131 9.09518 2.13487C17.3351 2.01843 25.5751 2.25131 33.8539 2.25131C55.853 2.25131 77.8521 2.25131 99.8513 2.25131V2.13487Z" stroke="black" stroke-opacity="0.15" stroke-miterlimit="10"></path></svg>